<?xml version="1.0" standalone="no"?>
<!DOCTYPE svg PUBLIC "-//W3C//DTD SVG 20010904//EN"
 "http://www.w3.org/TR/2001/REC-SVG-20010904/DTD/svg10.dtd">
<svg version="1.0" xmlns="http://www.w3.org/2000/svg"
 width="210.000000pt" height="176.000000pt" viewBox="0 0 210.000000 176.000000"
 preserveAspectRatio="xMidYMid meet">

<g transform="translate(0.000000,176.000000) scale(0.100000,-0.100000)"
fill="#000000" stroke="none">
<path d="M212 1683 c-129 -177 -196 -362 -209 -573 -33 -577 410 -1073 987
-1107 577 -33 1073 410 1107 987 14 250 -67 510 -220 707 -42 53 -57 58 -57
20 0 -89 -89 -286 -175 -389 -97 -117 -251 -214 -405 -255 -90 -24 -291 -24
-380 0 -77 21 -192 74 -256 118 -160 110 -297 323 -320 498 -4 28 -10 54 -14
56 -5 3 -30 -25 -58 -62z m97 -269 c45 -79 128 -179 195 -234 250 -204 559
-254 858 -139 221 86 426 299 489 508 12 40 14 42 27 25 25 -35 75 -138 99
-209 174 -510 -101 -1067 -612 -1242 -510 -174 -1067 101 -1242 612 -69 203
-69 427 0 630 24 69 65 157 95 203 15 23 16 23 37 -36 12 -32 36 -86 54 -118z"/>
</g>
</svg>
